PathFileType	4	(X/Y/Z)	..\data\2014019\dynamic\2014019_C4_05.trc
DataRate	CameraRate	NumFrames	NumMarkers	Units	OrigDataRate	OrigDataStartFrame	OrigNumFrames
100.000000	100.000000	4	52	mm	100.000000	150	172
Frame#	Time	L_IAS			L_IPS			R_IPS			R_IAS			L_FTC			L_FLE			L_FME			L_FAX			L_TTC			L_FAL			L_TAM			L_FCC			L_FM1			L_FM2			L_FM5			R_FTC			R_FLE			R_FME			R_FAX			R_TTC			R_FAL			R_TAM			R_FCC			R_FM1			R_FM2			R_FM5			CV7			TV10			SXS			SJN			L_SIA			L_SRS			L_SAA			L_SAE			L_HLE			L_HME			L_UOA			L_RSP			L_UHE			L_HM2			L_HM5			R_SIA			R_SRS			R_SAA			R_SAE			R_HLE			R_HME			R_UOA			R_RSP			R_UHE			R_HM2			R_HM5			
		X1	Y1	Z1	X2	Y2	Z2	X3	Y3	Z3	X4	Y4	Z4	X5	Y5	Z5	X6	Y6	Z6	X7	Y7	Z7	X8	Y8	Z8	X9	Y9	Z9	X10	Y10	Z10	X11	Y11	Z11	X12	Y12	Z12	X13	Y13	Z13	X14	Y14	Z14	X15	Y15	Z15	X16	Y16	Z16	X17	Y17	Z17	X18	Y18	Z18	X19	Y19	Z19	X20	Y20	Z20	X21	Y21	Z21	X22	Y22	Z22	X23	Y23	Z23	X24	Y24	Z24	X25	Y25	Z25	X26	Y26	Z26	X27	Y27	Z27	X28	Y28	Z28	X29	Y29	Z29	X30	Y30	Z30	X31	Y31	Z31	X32	Y32	Z32	X33	Y33	Z33	X34	Y34	Z34	X35	Y35	Z35	X36	Y36	Z36	X37	Y37	Z37	X38	Y38	Z38	X39	Y39	Z39	X40	Y40	Z40	X41	Y41	Z41	X42	Y42	Z42	X43	Y43	Z43	X44	Y44	Z44	X45	Y45	Z45	X46	Y46	Z46	X47	Y47	Z47	X48	Y48	Z48	X49	Y49	Z49	X50	Y50	Z50	X51	Y51	Z51	X52	Y52	Z52	

151	1.5	662.8262939453126	929.2095336914065	136.0275115966798	447.4879760742189	983.1916503906252	196.5135040283204	435.8272094726563	967.906433105469	293.0905761718751	639.1602783203126	933.0832519531252	369.461639404297	579.0427856445314	871.1740722656252	48.65798187255868	541.5711669921876	454.8235168457032	124.6796417236329	492.3594665527344	454.5363159179689	252.1572113037111	509.2005615234376	401.0609741210939	118.3893661499024	548.4687500000001	384.7547912597657	179.5796508789063	413.3397827148439	62.98096084594728	171.5328826904298	430.8453063964844	90.44359588623048	264.0032348632814	361.1612243652344	25.21932792663575	210.5203552246095	540.9119262695314	16.76920127868653	279.7488708496095	569.3782958984376	31.18209457397462	227.4561004638673	537.4276123046876	14.95037078857422	164.870101928711	543.3612670898439	841.6174926757815	450.6177062988283	731.7778930664064	477.8355712890626	406.7016906738284	762.9272460937501	467.0351562500001	275.2344360351564	708.0419311523439	423.9561157226564	409.5484619140627	781.0864868164065	406.4708862304689	370.973114013672	662.0301513671876	84.58254241943361	385.0577697753908	711.3809204101564	90.88750457763673	306.2621459960939	632.6710815429689	38.47907638549805	322.8272094726564	827.0689086914065	32.26082229614259	356.9363403320314	815.4072875976565	48.22805404663087	410.9556884765627	762.5999145507814	30.78246879577637	445.8305664062502	490.3936462402344	1468.08447265625	249.8412475585939	418.8268432617188	1253.466674804688	232.827362060547	644.9153442382814	1152.594116210938	262.4944458007814	610.4662475585939	1378.1220703125	261.9382324218751	423.4559631347657	1295.02734375	151.0037231445313	473.5285949707032	1420.958374023438	131.6456756591798	516.0371704101564	1413.568359375	72.69993591308601	566.4102172851564	1427.320068359375	71.83649444580087	605.6629028320314	1095.064453125	-6.395603656768726	573.8113403320314	1082.4130859375	52.34791183471688	586.8206787109376	1060.71630859375	25.37418556213387	806.5454711914065	935.7320556640627	19.65956497192393	761.5692138671876	911.5051269531252	-31.65460586547843	875.0510864257815	883.415466308594	11.05887413024913	802.6358032226565	830.464538574219	-32.83520126342764	401.8444824218751	1283.999267578125	304.0476379394532	445.0588378906251	1413.845947265625	347.9352111816407	481.5719299316407	1411.551635742188	415.8079833984377	519.4517822265626	1422.302612304688	425.9662170410158	429.7877502441407	1105.233154296875	491.401580810547	401.2181701660157	1105.334350585938	419.5032958984377	391.6580505371094	1086.12109375	457.8482971191408	494.5769348144532	855.3706054687502	478.9827880859377	436.1926269531251	866.8430175781252	520.2609863281251	498.2471313476563	757.4913940429689	490.503143310547	403.1958007812501	788.1912841796877	508.1798095703127	
152	1.51	673.6817016601564	927.309997558594	136.1932525634767	458.8389282226564	981.9910888671877	198.8215332031251	448.0863037109376	966.6660156250002	295.3314819335939	651.9632568359376	931.6824951171877	370.0821838378907	588.6577758789064	870.0554809570315	49.51252365112313	547.0337524414064	453.9842529296876	125.0454559326173	498.3229064941407	454.2626037597657	252.5707092285157	514.0042724609376	400.6218261718751	118.7430801391602	552.9097290039064	383.6855773925782	179.833709716797	413.8388061523439	63.5537796020508	171.4398040771485	431.5108337402344	90.83831024169923	264.0602111816407	361.2058105468751	26.30700874328614	210.5535125732423	540.7857666015626	16.82085990905762	279.7710266113282	569.4038085937501	31.12874031066895	227.393524169922	537.3374633789064	14.91544437408448	164.8480224609376	556.5592651367189	840.3710937500002	451.9741516113283	744.8552856445314	476.4733276367189	406.8511047363284	775.1831054687502	465.8974914550782	274.9930419921877	723.8680419921876	421.2456665039064	409.961853027344	797.749450683594	407.3619384765626	370.9519958496095	700.3996582031251	79.45696258544923	386.859069824219	749.6051635742189	88.44018554687501	307.7976379394533	674.3461303710939	31.30598068237305	324.6837768554689	868.7053833007815	36.8894157409668	358.6729125976564	855.9965820312502	52.42385482788087	412.7280578613284	804.417663574219	32.10005950927735	447.7005920410159	502.7723083496094	1466.684204101563	249.6868438720704	430.8649291992188	1252.1123046875	233.2212524414064	657.1856689453126	1150.66259765625	262.4604492187501	622.8132324218751	1376.49658203125	261.911102294922	436.0964355468751	1293.629028320313	150.7782745361329	486.088836669922	1419.53125	131.4017486572266	528.8668212890626	1412.446166992188	72.60913085937509	578.9735717773439	1426.43017578125	72.29702758789071	624.0363159179689	1095.031982421875	-6.419549942016527	592.4834594726564	1081.675170898438	52.14050674438485	606.2318725585939	1060.101318359375	25.20030212402352	830.4846801757815	942.7305908203127	21.62191200256358	786.916687011719	916.6514282226565	-29.88350296020499	900.9383544921877	893.0539550781252	13.50000286102306	830.8239746093752	837.2045898437502	-30.46438980102529	414.0887145996094	1282.371215820313	303.5245056152345	457.0785827636719	1412.119140625	347.3139953613282	493.1546020507813	1410.131591796875	415.4168395996095	530.9328613281251	1420.824584960938	425.822235107422	437.0019836425782	1104.74951171875	490.1496582031252	410.3430480957032	1104.968505859375	417.5347290039064	399.7425842285157	1086.131591796875	455.7567749023439	498.3800964355469	853.8143310546877	479.6446228027345	439.3037414550782	866.3963012695315	519.5269775390626	500.4676513671876	756.0566406250001	491.8493041992189	405.3579406738282	788.1223754882815	506.7744750976564	
153	1.52	684.6501464843751	925.446960449219	136.5086975097657	470.3328857421876	980.744567871094	201.1068572998048	460.4996337890626	965.3706054687502	297.5601501464845	664.8629150390626	930.1325683593752	370.7618103027345	598.4494628906251	868.988464355469	50.37682723999032	552.6275024414064	453.1953735351564	125.3691711425782	504.4242858886719	454.0018920898439	252.9694213867189	518.8871459960939	400.2303161621095	119.0680160522462	557.4830322265626	382.6477661132813	180.049789428711	414.353729248047	64.27855682373048	171.3305053710938	432.2567443847657	91.36284637451173	264.0862731933595	361.2937316894532	27.59438514709473	210.5859985351564	540.6719360351564	16.86997795104981	279.7809143066407	569.4206542968751	31.07896041870118	227.3238525390626	537.2330322265626	14.89966773986817	164.8328094482423	569.6125488281251	838.9696044921877	453.2325439453127	757.5536499023439	474.7651672363282	407.1738281250002	786.6967773437502	464.2680053710939	274.7906494140627	739.3956909179689	418.4256896972657	410.514587402344	813.8492431640627	408.0781555175782	370.8927307128908	738.4043579101564	75.63541412353517	388.5430908203127	786.9516601562502	87.2857131958008	309.0733642578127	715.3733520507814	25.64975547790528	326.428924560547	909.129577636719	42.73515319824219	359.5692749023439	895.6892089843752	57.78181076049806	413.7276306152346	845.6301879882815	34.6443214416504	448.9511413574221	515.1625976562501	1465.192016601563	249.5831451416017	442.9695129394532	1250.648803710938	233.6973419189454	669.5568237304689	1148.6376953125	262.4892578125001	635.2139282226564	1374.791137695313	261.9124755859376	448.7882690429689	1292.108642578125	150.6306610107423	498.6301574707032	1418.013793945313	131.2410430908204	541.6947021484376	1411.273071289063	72.58841705322274	591.5210571289064	1425.4931640625	72.81813049316415	642.0812988281251	1094.988891601563	-6.175443649291915	610.9414062500001	1081.049560546875	52.27157592773447	625.3328857421876	1059.554443359375	25.34705734252938	853.7768554687502	949.7954101562502	23.61128425598155	811.5113525390627	921.866882324219	-27.94424057006827	926.006774902344	902.7001953125002	15.83552074432385	858.093933105469	844.0866699218752	-27.91693496704092	426.3894653320313	1280.650024414063	303.1618957519532	469.1553649902344	1410.299438476563	346.7705993652345	504.8336486816407	1408.63037109375	415.0609436035158	542.5100097656251	1419.30859375	425.7096252441408	444.6012573242188	1104.2216796875	488.8682556152345	419.8705749511719	1104.504150390625	415.5721740722658	408.2234191894532	1086.051391601563	453.659393310547	502.6000671386719	852.3164062500002	480.3834533691408	442.8030700683594	865.9989013671877	518.8440551757814	503.0392761230469	754.6683349609376	493.2305603027345	407.9418945312501	788.1097412109377	505.3914489746095	
154	1.53	695.7463378906251	923.624450683594	136.9320526123048	481.987518310547	979.4650878906252	203.3477325439454	473.0711364746094	964.0261230468752	299.7662353515626	677.8810424804689	928.453796386719	371.4552307128907	608.4251708984376	867.974304199219	51.23696517944344	558.3453979492189	452.4751586914064	125.6407775878907	510.6860351562501	453.7600097656251	253.3545227050782	523.8366088867189	399.9056701660157	119.3560333251954	562.2003173828126	381.6619262695313	180.2108612060548	414.8817138671876	65.1851043701172	171.2123260498048	433.0945434570313	92.04038238525392	264.081268310547	361.4353332519532	29.1023292541504	210.6164855957032	540.5834960937501	16.92537117004395	279.7789916992189	569.4338378906251	31.03709030151368	227.2505645751954	537.1189575195314	14.91055488586426	164.8274078369141	582.5651245117189	837.4385986328127	454.4002990722658	769.9819335937502	472.787811279297	407.6927490234377	797.5769653320315	462.2047119140626	274.6749267578127	754.6916503906251	415.5792541503907	411.2125244140627	829.4351806640627	408.6436767578126	370.8252868652345	775.7000732421877	73.04676818847658	390.0449523925784	823.0660400390627	87.33384704589845	310.0344848632814	755.3397216796876	21.45467758178711	328.019256591797	948.001647949219	49.64016342163087	359.4974060058595	934.1768188476565	64.16307067871095	413.8191528320315	885.9253540039065	38.2942008972168	449.4582519531252	527.5702514648439	1463.625732421875	249.5506591796876	455.1547241210938	1249.0927734375	234.2518768310548	682.0249633789064	1146.566650390625	262.584686279297	647.6706542968751	1373.031372070313	261.9580383300782	461.5237121582032	1290.49072265625	150.5744628906251	511.1527404785157	1416.426635742188	131.1797637939454	554.5090942382814	1410.055786132813	72.64698028564462	604.0527343750001	1424.513671875	73.3970260620118	659.7795410156251	1094.91650390625	-5.691343784332195	629.1422119140626	1080.520751953125	52.70669174194345	644.0869140625001	1059.057006835938	25.78304672241219	876.411315917969	956.8799438476565	25.63329696655285	835.3459472656252	927.1037597656252	-25.85208320617666	950.2490844726565	912.2921142578127	18.09595680236828	884.4383544921877	851.0419921875002	-25.20629501342763	438.7645263671876	1278.853393554688	302.964080810547	481.3064575195313	1408.410400390625	346.3330688476564	516.6331176757814	1407.0634765625	414.766082763672	554.2072143554689	1417.76220703125	425.6505126953127	452.6571655273438	1103.641479492188	487.5654296875002	429.8174438476563	1103.940551757813	413.6520996093752	417.1365966796876	1085.876586914063	451.5880126953127	507.2526245117188	850.862976074219	481.1923217773439	446.7311401367188	865.639099121094	518.2273559570314	505.9721374511719	753.3141479492189	494.6202392578127	410.9786987304688	788.1503906250002	504.0629272460939	
